<svg width="50" height="51" viewBox="0 0 50 51" fill="none" xmlns="http://www.w3.org/2000/svg">
<path d="M27.0833 23.7292H14.5833" stroke="#49622F" stroke-width="4" stroke-linecap="round" stroke-linejoin="round"/>
<path d="M4.16675 23.7292V14.1042C4.16675 9.85422 7.60425 6.41672 11.8543 6.41672H23.5626C27.8126 6.41672 31.2501 9.06255 31.2501 13.3125" stroke="#49622F" stroke-width="4" stroke-linecap="round" stroke-linejoin="round"/>
<path d="M36.4167 25.9167C35.375 26.9167 34.8751 28.4583 35.2918 30.0417C35.8126 31.9792 37.7293 33.2084 39.7293 33.2084H41.6667V36.2292C41.6667 40.8334 37.9376 44.5626 33.3334 44.5626H12.5001C7.89591 44.5626 4.16675 40.8334 4.16675 36.2292V21.6459C4.16675 17.0417 7.89591 13.3126 12.5001 13.3126H33.3334C37.9167 13.3126 41.6667 17.0626 41.6667 21.6459V24.6666H39.4167C38.25 24.6666 37.1875 25.125 36.4167 25.9167Z" stroke="#49622F" stroke-width="4" stroke-linecap="round" stroke-linejoin="round"/>
<path d="M45.8334 26.7917V31.0833C45.8334 32.25 44.875 33.2084 43.6875 33.2084H39.6667C37.4167 33.2084 35.3542 31.5625 35.1667 29.3125C35.0417 28 35.5417 26.7709 36.4167 25.9167C37.1875 25.125 38.25 24.6666 39.4167 24.6666H43.6875C44.875 24.6666 45.8334 25.625 45.8334 26.7917Z" stroke="#49622F" stroke-width="4" stroke-linecap="round" stroke-linejoin="round"/>
</svg>
