<svg width="311" height="261" viewBox="0 0 311 261" fill="none" xmlns="http://www.w3.org/2000/svg">
<g opacity="0.5">
<path d="M219.359 182.832V3H91.5051V182.832H219.359Z" stroke="#B9B9B9" stroke-width="5" stroke-linejoin="round"/>
<rect x="91.505" y="3.59747" width="127.854" height="17.9234" fill="#B9B9B9"/>
<circle cx="136.911" cy="60.9524" r="4.77958" fill="#B9B9B9"/>
<circle cx="175.148" cy="60.9524" r="4.77958" fill="#B9B9B9"/>
<rect x="145.275" y="74.0963" width="21.5081" height="7.16937" rx="3.58468" fill="#B9B9B9"/>
<path d="M221.359 54.3805H266.454C267.733 54.3805 268.684 55.5653 268.406 56.8144L265.903 68.0777C265.626 69.3267 266.576 70.5116 267.856 70.5116H276.639C278.082 70.5116 279.05 71.9939 278.47 73.3156L269.152 94.5389C269.018 94.846 268.962 95.182 268.991 95.5161L274.733 161.54C274.834 162.709 273.913 163.713 272.74 163.713H221.359C220.254 163.713 219.359 162.818 219.359 161.713V56.3805C219.359 55.2759 220.254 54.3805 221.359 54.3805Z" fill="#B9B9B9"/>
<circle cx="268.947" cy="97.3967" r="9.8515" fill="white" stroke="#B9B9B9" stroke-width="3"/>
<path d="M89.5051 54.3805H44.4102C43.1307 54.3805 42.1802 55.5653 42.4578 56.8144L44.9608 68.0777C45.2383 69.3267 44.2879 70.5116 43.0084 70.5116H34.2252C32.7818 70.5116 31.8137 71.9939 32.3939 73.3156L41.7115 94.5389C41.8463 94.846 41.9017 95.182 41.8727 95.5161L36.1314 161.54C36.0298 162.709 36.951 163.713 38.1239 163.713H89.5051C90.6096 163.713 91.5051 162.818 91.5051 161.713V56.3805C91.5051 55.2759 90.6096 54.3805 89.5051 54.3805Z" fill="#B9B9B9"/>
<circle r="9.8515" transform="matrix(-1 0 0 1 41.9168 97.3967)" fill="white" stroke="#B9B9B9" stroke-width="3"/>
<rect x="295.96" y="37.6161" width="3.58468" height="14.3387" rx="1.79234" transform="rotate(45 295.96 37.6161)" fill="#B9B9B9"/>
<rect x="304.263" y="55.8068" width="3.58468" height="14.3387" rx="1.79234" transform="rotate(90 304.263 55.8068)" fill="#B9B9B9"/>
<rect width="3.58468" height="14.3387" rx="1.79234" transform="matrix(-1 0 0 1 280.298 31.8416)" fill="#B9B9B9"/>
<rect width="3.58468" height="14.3387" rx="1.79234" transform="matrix(-0.707107 0.707107 0.707107 0.707107 15.7333 37.616)" fill="#B9B9B9"/>
<rect width="3.58468" height="14.3387" rx="1.79234" transform="matrix(0 1 1 0 7.43005 55.8066)" fill="#B9B9B9"/>
<rect x="31.3954" y="31.8414" width="3.58468" height="14.3387" rx="1.79234" fill="#B9B9B9"/>
<ellipse cx="156.03" cy="207.924" rx="66.9141" ry="5.97447" fill="#B9B9B9"/>
<path d="M62.2147 256.975H68.5587V258.899H59.8487V240.777H62.2147V256.975ZM70.1873 251.723C70.1873 250.267 70.482 248.993 71.0713 247.901C71.6607 246.792 72.4667 245.934 73.4893 245.327C74.5293 244.72 75.682 244.417 76.9473 244.417C78.1953 244.417 79.2787 244.686 80.1973 245.223C81.116 245.76 81.8007 246.436 82.2513 247.251V244.651H84.6433V258.899H82.2513V256.247C81.7833 257.079 81.0813 257.772 80.1453 258.327C79.2267 258.864 78.152 259.133 76.9213 259.133C75.656 259.133 74.512 258.821 73.4893 258.197C72.4667 257.573 71.6607 256.698 71.0713 255.571C70.482 254.444 70.1873 253.162 70.1873 251.723ZM82.2513 251.749C82.2513 250.674 82.0347 249.738 81.6013 248.941C81.168 248.144 80.5787 247.537 79.8333 247.121C79.1053 246.688 78.2993 246.471 77.4153 246.471C76.5313 246.471 75.7253 246.679 74.9973 247.095C74.2693 247.511 73.6887 248.118 73.2553 248.915C72.822 249.712 72.6053 250.648 72.6053 251.723C72.6053 252.815 72.822 253.768 73.2553 254.583C73.6887 255.38 74.2693 255.996 74.9973 256.429C75.7253 256.845 76.5313 257.053 77.4153 257.053C78.2993 257.053 79.1053 256.845 79.8333 256.429C80.5787 255.996 81.168 255.38 81.6013 254.583C82.0347 253.768 82.2513 252.824 82.2513 251.749ZM97.9393 239.659V258.899H95.5733V239.659H97.9393ZM103.194 242.337C102.743 242.337 102.362 242.181 102.05 241.869C101.738 241.557 101.582 241.176 101.582 240.725C101.582 240.274 101.738 239.893 102.05 239.581C102.362 239.269 102.743 239.113 103.194 239.113C103.627 239.113 103.991 239.269 104.286 239.581C104.598 239.893 104.754 240.274 104.754 240.725C104.754 241.176 104.598 241.557 104.286 241.869C103.991 242.181 103.627 242.337 103.194 242.337ZM104.338 244.651V258.899H101.972V244.651H104.338ZM113.414 259.133C112.322 259.133 111.343 258.951 110.476 258.587C109.609 258.206 108.925 257.686 108.422 257.027C107.919 256.351 107.642 255.58 107.59 254.713H110.034C110.103 255.424 110.433 256.004 111.022 256.455C111.629 256.906 112.417 257.131 113.388 257.131C114.289 257.131 115 256.932 115.52 256.533C116.04 256.134 116.3 255.632 116.3 255.025C116.3 254.401 116.023 253.942 115.468 253.647C114.913 253.335 114.055 253.032 112.894 252.737C111.837 252.46 110.97 252.182 110.294 251.905C109.635 251.61 109.063 251.186 108.578 250.631C108.11 250.059 107.876 249.314 107.876 248.395C107.876 247.667 108.093 247 108.526 246.393C108.959 245.786 109.575 245.31 110.372 244.963C111.169 244.599 112.079 244.417 113.102 244.417C114.679 244.417 115.953 244.816 116.924 245.613C117.895 246.41 118.415 247.502 118.484 248.889H116.118C116.066 248.144 115.763 247.546 115.208 247.095C114.671 246.644 113.943 246.419 113.024 246.419C112.175 246.419 111.499 246.601 110.996 246.965C110.493 247.329 110.242 247.806 110.242 248.395C110.242 248.863 110.389 249.253 110.684 249.565C110.996 249.86 111.377 250.102 111.828 250.293C112.296 250.466 112.937 250.666 113.752 250.891C114.775 251.168 115.607 251.446 116.248 251.723C116.889 251.983 117.435 252.382 117.886 252.919C118.354 253.456 118.597 254.158 118.614 255.025C118.614 255.805 118.397 256.507 117.964 257.131C117.531 257.755 116.915 258.249 116.118 258.613C115.338 258.96 114.437 259.133 113.414 259.133ZM124.84 246.601V254.999C124.84 255.692 124.987 256.186 125.282 256.481C125.577 256.758 126.088 256.897 126.816 256.897H128.558V258.899H126.426C125.109 258.899 124.121 258.596 123.462 257.989C122.803 257.382 122.474 256.386 122.474 254.999V246.601H120.628V244.651H122.474V241.063H124.84V244.651H128.558V246.601H124.84ZM144.425 251.229C144.425 251.68 144.399 252.156 144.347 252.659H132.959C133.046 254.063 133.522 255.164 134.389 255.961C135.273 256.741 136.339 257.131 137.587 257.131C138.61 257.131 139.459 256.897 140.135 256.429C140.828 255.944 141.314 255.302 141.591 254.505H144.139C143.758 255.874 142.995 256.992 141.851 257.859C140.707 258.708 139.286 259.133 137.587 259.133C136.235 259.133 135.022 258.83 133.947 258.223C132.89 257.616 132.058 256.758 131.451 255.649C130.844 254.522 130.541 253.222 130.541 251.749C130.541 250.276 130.836 248.984 131.425 247.875C132.014 246.766 132.838 245.916 133.895 245.327C134.97 244.72 136.2 244.417 137.587 244.417C138.939 244.417 140.135 244.712 141.175 245.301C142.215 245.89 143.012 246.705 143.567 247.745C144.139 248.768 144.425 249.929 144.425 251.229ZM141.981 250.735C141.981 249.834 141.782 249.062 141.383 248.421C140.984 247.762 140.438 247.268 139.745 246.939C139.069 246.592 138.315 246.419 137.483 246.419C136.287 246.419 135.264 246.8 134.415 247.563C133.583 248.326 133.106 249.383 132.985 250.735H141.981ZM167.48 251.229C167.48 251.68 167.454 252.156 167.402 252.659H156.014C156.1 254.063 156.577 255.164 157.444 255.961C158.328 256.741 159.394 257.131 160.642 257.131C161.664 257.131 162.514 256.897 163.19 256.429C163.883 255.944 164.368 255.302 164.646 254.505H167.194C166.812 255.874 166.05 256.992 164.906 257.859C163.762 258.708 162.34 259.133 160.642 259.133C159.29 259.133 158.076 258.83 157.002 258.223C155.944 257.616 155.112 256.758 154.506 255.649C153.899 254.522 153.596 253.222 153.596 251.749C153.596 250.276 153.89 248.984 154.48 247.875C155.069 246.766 155.892 245.916 156.95 245.327C158.024 244.72 159.255 244.417 160.642 244.417C161.994 244.417 163.19 244.712 164.23 245.301C165.27 245.89 166.067 246.705 166.622 247.745C167.194 248.768 167.48 249.929 167.48 251.229ZM165.036 250.735C165.036 249.834 164.836 249.062 164.438 248.421C164.039 247.762 163.493 247.268 162.8 246.939C162.124 246.592 161.37 246.419 160.538 246.419C159.342 246.419 158.319 246.8 157.47 247.563C156.638 248.326 156.161 249.383 156.04 250.735H165.036ZM175.647 259.133C174.555 259.133 173.575 258.951 172.709 258.587C171.842 258.206 171.157 257.686 170.655 257.027C170.152 256.351 169.875 255.58 169.823 254.713H172.267C172.336 255.424 172.665 256.004 173.255 256.455C173.861 256.906 174.65 257.131 175.621 257.131C176.522 257.131 177.233 256.932 177.753 256.533C178.273 256.134 178.533 255.632 178.533 255.025C178.533 254.401 178.255 253.942 177.701 253.647C177.146 253.335 176.288 253.032 175.127 252.737C174.069 252.46 173.203 252.182 172.527 251.905C171.868 251.61 171.296 251.186 170.811 250.631C170.343 250.059 170.109 249.314 170.109 248.395C170.109 247.667 170.325 247 170.759 246.393C171.192 245.786 171.807 245.31 172.605 244.963C173.402 244.599 174.312 244.417 175.335 244.417C176.912 244.417 178.186 244.816 179.157 245.613C180.127 246.41 180.647 247.502 180.717 248.889H178.351C178.299 248.144 177.995 247.546 177.441 247.095C176.903 246.644 176.175 246.419 175.257 246.419C174.407 246.419 173.731 246.601 173.229 246.965C172.726 247.329 172.475 247.806 172.475 248.395C172.475 248.863 172.622 249.253 172.917 249.565C173.229 249.86 173.61 250.102 174.061 250.293C174.529 250.466 175.17 250.666 175.985 250.891C177.007 251.168 177.839 251.446 178.481 251.723C179.122 251.983 179.668 252.382 180.119 252.919C180.587 253.456 180.829 254.158 180.847 255.025C180.847 255.805 180.63 256.507 180.197 257.131C179.763 257.755 179.148 258.249 178.351 258.613C177.571 258.96 176.669 259.133 175.647 259.133ZM187.073 246.601V254.999C187.073 255.692 187.22 256.186 187.515 256.481C187.809 256.758 188.321 256.897 189.049 256.897H190.791V258.899H188.659C187.341 258.899 186.353 258.596 185.695 257.989C185.036 257.382 184.707 256.386 184.707 254.999V246.601H182.861V244.651H184.707V241.063H187.073V244.651H190.791V246.601H187.073ZM205.893 256.715L210.313 244.651H212.835L207.245 258.899H204.489L198.899 244.651H201.447L205.893 256.715ZM216.385 242.337C215.934 242.337 215.553 242.181 215.241 241.869C214.929 241.557 214.773 241.176 214.773 240.725C214.773 240.274 214.929 239.893 215.241 239.581C215.553 239.269 215.934 239.113 216.385 239.113C216.818 239.113 217.182 239.269 217.477 239.581C217.789 239.893 217.945 240.274 217.945 240.725C217.945 241.176 217.789 241.557 217.477 241.869C217.182 242.181 216.818 242.337 216.385 242.337ZM217.529 244.651V258.899H215.163V244.651H217.529ZM220.678 251.723C220.678 250.267 220.972 248.993 221.562 247.901C222.151 246.792 222.957 245.934 223.98 245.327C225.02 244.72 226.181 244.417 227.464 244.417C228.573 244.417 229.604 244.677 230.558 245.197C231.511 245.7 232.239 246.367 232.742 247.199V239.659H235.134V258.899H232.742V256.221C232.274 257.07 231.58 257.772 230.662 258.327C229.743 258.864 228.668 259.133 227.438 259.133C226.172 259.133 225.02 258.821 223.98 258.197C222.957 257.573 222.151 256.698 221.562 255.571C220.972 254.444 220.678 253.162 220.678 251.723ZM232.742 251.749C232.742 250.674 232.525 249.738 232.092 248.941C231.658 248.144 231.069 247.537 230.324 247.121C229.596 246.688 228.79 246.471 227.906 246.471C227.022 246.471 226.216 246.679 225.488 247.095C224.76 247.511 224.179 248.118 223.746 248.915C223.312 249.712 223.096 250.648 223.096 251.723C223.096 252.815 223.312 253.768 223.746 254.583C224.179 255.38 224.76 255.996 225.488 256.429C226.216 256.845 227.022 257.053 227.906 257.053C228.79 257.053 229.596 256.845 230.324 256.429C231.069 255.996 231.658 255.38 232.092 254.583C232.525 253.768 232.742 252.824 232.742 251.749ZM252.132 251.229C252.132 251.68 252.106 252.156 252.054 252.659H240.666C240.753 254.063 241.229 255.164 242.096 255.961C242.98 256.741 244.046 257.131 245.294 257.131C246.317 257.131 247.166 256.897 247.842 256.429C248.535 255.944 249.021 255.302 249.298 254.505H251.846C251.465 255.874 250.702 256.992 249.558 257.859C248.414 258.708 246.993 259.133 245.294 259.133C243.942 259.133 242.729 258.83 241.654 258.223C240.597 257.616 239.765 256.758 239.158 255.649C238.551 254.522 238.248 253.222 238.248 251.749C238.248 250.276 238.543 248.984 239.132 247.875C239.721 246.766 240.545 245.916 241.602 245.327C242.677 244.72 243.907 244.417 245.294 244.417C246.646 244.417 247.842 244.712 248.882 245.301C249.922 245.89 250.719 246.705 251.274 247.745C251.846 248.768 252.132 249.929 252.132 251.229ZM249.688 250.735C249.688 249.834 249.489 249.062 249.09 248.421C248.691 247.762 248.145 247.268 247.452 246.939C246.776 246.592 246.022 246.419 245.19 246.419C243.994 246.419 242.971 246.8 242.122 247.563C241.29 248.326 240.813 249.383 240.692 250.735H249.688Z" fill="#B9B9B9"/>
</g>
</svg>
