<svg width="137" height="60" viewBox="0 0 137 60" fill="none" xmlns="http://www.w3.org/2000/svg">
<path d="M18.6485 8.82689C18.1713 7.93912 17.4807 7.26696 16.5765 6.8104C15.6974 6.32847 14.6551 6.08751 13.4496 6.08751C11.3649 6.08751 9.69473 6.78503 8.43894 8.18009C7.18314 9.54978 6.55524 11.3887 6.55524 13.6969C6.55524 16.1573 7.20826 18.085 8.51428 19.48C9.84542 20.8497 11.6663 21.5346 13.977 21.5346C15.5593 21.5346 16.8904 21.1287 17.9704 20.3171C19.0755 19.5054 19.8792 18.3386 20.3815 16.8167H12.2063V12.0228H26.221V18.0723C25.7438 19.6956 24.9275 21.2048 23.7722 22.5999C22.642 23.9949 21.1978 25.1237 19.4397 25.9861C17.6816 26.8484 15.6974 27.2796 13.4872 27.2796C10.8752 27.2796 8.5394 26.7089 6.4799 25.5675C4.44551 24.4008 2.85065 22.7901 1.69532 20.7356C0.565107 18.681 0 16.3348 0 13.6969C0 11.059 0.565107 8.71275 1.69532 6.65821C2.85065 4.57831 4.44551 2.96766 6.4799 1.82625C8.51428 0.659479 10.8375 0.0760929 13.4496 0.0760929C16.6142 0.0760929 19.2764 0.849714 21.4364 2.39696C23.6215 3.9442 25.0656 6.08751 25.7689 8.82689H18.6485Z" fill="#49622F"/>
<path d="M43.2766 27.0894L37.7762 17.007H36.2316V27.0894H29.7894V0.380469H40.6018C42.6864 0.380469 44.4571 0.748256 45.9138 1.48383C47.3956 2.2194 48.5007 3.23399 49.2291 4.52758C49.9574 5.79581 50.3216 7.21623 50.3216 8.78884C50.3216 10.5644 49.8193 12.1497 48.8147 13.5447C47.8352 14.9398 46.3784 15.929 44.4445 16.5124L50.5477 27.0894H43.2766ZM36.2316 12.4033H40.225C41.4055 12.4033 42.2845 12.1116 42.8622 11.5282C43.465 10.9448 43.7664 10.1205 43.7664 9.05517C43.7664 8.04058 43.465 7.2416 42.8622 6.65821C42.2845 6.07483 41.4055 5.78313 40.225 5.78313H36.2316V12.4033Z" fill="#49622F"/>
<path d="M66.8734 27.3557C64.3869 27.3557 62.1014 26.7724 60.0167 25.6056C57.9572 24.4388 56.3122 22.8155 55.0815 20.7356C53.8759 18.6303 53.2731 16.2714 53.2731 13.6588C53.2731 11.0463 53.8759 8.70006 55.0815 6.62016C56.3122 4.54027 57.9572 2.91693 60.0167 1.75016C62.1014 0.583386 64.3869 0 66.8734 0C69.3599 0 71.6328 0.583386 73.6924 1.75016C75.777 2.91693 77.4095 4.54027 78.5899 6.62016C79.7955 8.70006 80.3983 11.0463 80.3983 13.6588C80.3983 16.2714 79.7955 18.6303 78.5899 20.7356C77.3844 22.8155 75.7519 24.4388 73.6924 25.6056C71.6328 26.7724 69.3599 27.3557 66.8734 27.3557ZM66.8734 21.4204C68.9831 21.4204 70.6659 20.7102 71.9217 19.2898C73.2026 17.8694 73.843 15.9924 73.843 13.6588C73.843 11.2999 73.2026 9.42295 71.9217 8.0279C70.6659 6.60748 68.9831 5.89727 66.8734 5.89727C64.7385 5.89727 63.0307 6.5948 61.7497 7.98985C60.4939 9.38491 59.8661 11.2746 59.8661 13.6588C59.8661 16.0178 60.4939 17.9074 61.7497 19.3278C63.0307 20.7229 64.7385 21.4204 66.8734 21.4204Z" fill="#49622F"/>
<path d="M90.3115 0.380469V16.3602C90.3115 17.9581 90.7008 19.1883 91.4794 20.0507C92.258 20.9131 93.4008 21.3443 94.9077 21.3443C96.4147 21.3443 97.57 20.9131 98.3737 20.0507C99.1774 19.1883 99.5793 17.9581 99.5793 16.3602V0.380469H106.021V16.3221C106.021 18.7064 105.519 20.7229 104.515 22.3716C103.51 24.0203 102.154 25.2632 100.446 26.1002C98.763 26.9372 96.8793 27.3557 94.7947 27.3557C92.7101 27.3557 90.8389 26.9499 89.1813 26.1382C87.5488 25.3012 86.2553 24.0583 85.3009 22.4096C84.3465 20.7356 83.8693 18.7064 83.8693 16.3221V0.380469H90.3115Z" fill="#49622F"/>
<path d="M130.701 8.97907C130.701 10.5263 130.349 11.9467 129.646 13.2403C128.943 14.5086 127.863 15.5358 126.406 16.3221C124.949 17.1084 123.141 17.5016 120.981 17.5016H116.988V27.0894H110.545V0.380469H120.981C123.091 0.380469 124.874 0.748256 126.331 1.48383C127.787 2.2194 128.88 3.23399 129.608 4.52758C130.337 5.82118 130.701 7.30501 130.701 8.97907ZM120.491 12.3272C121.722 12.3272 122.639 12.0355 123.241 11.4521C123.844 10.8687 124.146 10.0444 124.146 8.97907C124.146 7.91376 123.844 7.08941 123.241 6.50602C122.639 5.92264 121.722 5.63095 120.491 5.63095H116.988V12.3272H120.491Z" fill="#49622F"/>
<path d="M0 46.4173C0 43.7793 0.565107 41.4331 1.69532 39.3786C2.82554 37.2987 4.39528 35.688 6.40455 34.5466C8.43894 33.3798 10.737 32.7964 13.2989 32.7964C16.4383 32.7964 19.1257 33.6335 21.3611 35.3075C23.5964 36.9816 25.0908 39.2644 25.8442 42.156H18.7616C18.2341 41.04 17.4807 40.1902 16.5011 39.6068C15.5467 39.0235 14.4542 38.7318 13.2235 38.7318C11.2394 38.7318 9.63194 39.4293 8.40126 40.8244C7.17058 42.2194 6.55524 44.0837 6.55524 46.4173C6.55524 48.7508 7.17058 50.6151 8.40126 52.0101C9.63194 53.4052 11.2394 54.1027 13.2235 54.1027C14.4542 54.1027 15.5467 53.811 16.5011 53.2276C17.4807 52.6443 18.2341 51.7945 18.7616 50.6785H25.8442C25.0908 53.5701 23.5964 55.8529 21.3611 57.527C19.1257 59.1757 16.4383 60 13.2989 60C10.737 60 8.43894 59.4293 6.40455 58.2879C4.39528 57.1211 2.82554 55.5105 1.69532 53.4559C0.565107 51.4014 0 49.0552 0 46.4173Z" fill="#49622F"/>
<path d="M52.6951 33.1008V59.8098H46.2529V48.8142H36.2316V59.8098H29.7894V33.1008H36.2316V43.5637H46.2529V33.1008H52.6951Z" fill="#49622F"/>
<path d="M73.8092 55.0919H63.9387L62.3563 59.8098H55.6127L65.1819 33.1008H72.6413L82.2105 59.8098H75.3915L73.8092 55.0919ZM72.1515 50.0698L68.8739 40.2917L65.634 50.0698H72.1515Z" fill="#49622F"/>
<path d="M98.61 59.8098L93.1097 49.7273H91.565V59.8098H85.1228V33.1008H95.9352C98.0198 33.1008 99.7905 33.4686 101.247 34.2042C102.729 34.9398 103.834 35.9543 104.563 37.2479C105.291 38.5162 105.655 39.9366 105.655 41.5092C105.655 43.2847 105.153 44.87 104.148 46.2651C103.169 47.6601 101.712 48.6493 99.7779 49.2327L105.881 59.8098H98.61ZM91.565 45.1237H95.5585C96.7389 45.1237 97.618 44.832 98.1956 44.2486C98.7984 43.6652 99.0998 42.8408 99.0998 41.7755C99.0998 40.7609 98.7984 39.962 98.1956 39.3786C97.618 38.7952 96.7389 38.5035 95.5585 38.5035H91.565V45.1237Z" fill="#49622F"/>
<path d="M126.916 33.1008V38.3133H116.141V43.9442H124.204V49.0044H116.141V59.8098H109.699V33.1008H126.916Z" fill="#49622F"/>
<path d="M136.744 33.1008V59.8098H130.302V33.1008H136.744Z" fill="#49622F"/>
</svg>
