<svg width="25" height="25" viewBox="0 0 25 25" fill="none" xmlns="http://www.w3.org/2000/svg">
<path d="M18.8529 14.5H19.5C20.4428 14.5 20.9142 14.5 21.2071 14.2071C21.5 13.9142 21.5 13.4428 21.5 12.5V11.5C21.5 9.61438 21.5 8.67157 20.9142 8.08579C20.3284 7.5 19.3856 7.5 17.5 7.5H7.5C5.61438 7.5 4.67157 7.5 4.08579 8.08579C3.5 8.67157 3.5 9.61438 3.5 11.5V13.5C3.5 13.9714 3.5 14.2071 3.64645 14.3536C3.79289 14.5 4.0286 14.5 4.5 14.5H6.14706" stroke="#49622F" stroke-width="2"/>
<path d="M6.5 20.8063L6.5 12.5C6.5 11.5572 6.5 11.0858 6.79289 10.7929C7.08579 10.5 7.55719 10.5 8.5 10.5L16.5 10.5C17.4428 10.5 17.9142 10.5 18.2071 10.7929C18.5 11.0858 18.5 11.5572 18.5 12.5L18.5 20.8063C18.5 21.1228 18.5 21.2811 18.3962 21.356C18.2924 21.4308 18.1422 21.3807 17.8419 21.2806L15.6581 20.5527C15.5798 20.5266 15.5406 20.5135 15.5 20.5135C15.4594 20.5135 15.4202 20.5266 15.3419 20.5527L12.6581 21.4473C12.5798 21.4734 12.5406 21.4865 12.5 21.4865C12.4594 21.4865 12.4202 21.4734 12.3419 21.4473L9.65811 20.5527C9.57975 20.5266 9.54057 20.5135 9.5 20.5135C9.45943 20.5135 9.42025 20.5266 9.34189 20.5527L7.15811 21.2806C6.8578 21.3807 6.70764 21.4308 6.60382 21.356C6.5 21.2811 6.5 21.1228 6.5 20.8063Z" stroke="#49622F" stroke-width="2"/>
<path d="M18.5 7.5V6.38C18.5 5.37191 18.5 4.86786 18.3038 4.48282C18.1312 4.14413 17.8559 3.86876 17.5172 3.69619C17.1321 3.5 16.6281 3.5 15.62 3.5H9.38C8.37191 3.5 7.86786 3.5 7.48282 3.69619C7.14413 3.86876 6.86876 4.14413 6.69619 4.48282C6.5 4.86786 6.5 5.37191 6.5 6.38V7.5" stroke="#49622F" stroke-width="2"/>
<path d="M10.5 14.5L13.5 14.5" stroke="#49622F" stroke-width="2" stroke-linecap="round"/>
<path d="M10.5 17.5L15 17.5" stroke="#49622F" stroke-width="2" stroke-linecap="round"/>
</svg>
